<svg width="80" height="80" viewBox="0 0 80 80" fill="none" xmlns="http://www.w3.org/2000/svg">
<path d="M6.66663 40.0001C6.66663 24.2866 6.66663 16.4298 11.5482 11.5483C16.4297 6.66675 24.2865 6.66675 40 6.66675C55.7133 6.66675 63.5703 6.66675 68.4516 11.5483C73.3333 16.4298 73.3333 24.2866 73.3333 40.0001C73.3333 55.7134 73.3333 63.5704 68.4516 68.4517C63.5703 73.3334 55.7133 73.3334 40 73.3334C24.2865 73.3334 16.4297 73.3334 11.5482 68.4517C6.66663 63.5704 6.66663 55.7134 6.66663 40.0001Z" fill="#9CADCE"/>
<path fill-rule="evenodd" clip-rule="evenodd" d="M40 24.1667C41.3807 24.1667 42.5 25.286 42.5 26.6667V38.9644L50.101 46.5657C51.0773 47.5421 51.0773 49.1248 50.101 50.1011C49.1247 51.0774 47.542 51.0774 46.5657 50.1011L38.2323 41.7677C37.7633 41.2991 37.5 40.6631 37.5 40.0001V26.6667C37.5 25.286 38.6193 24.1667 40 24.1667Z" fill="white"/>
</svg>
